<svg width="102px" height="102px" viewBox="0 0 102 102" version="1.1" xmlns="http://www.w3.org/2000/svg" xmlns:xlink="http://www.w3.org/1999/xlink">
    <!-- Generator: Sketch 54 (76480) - https://sketchapp.com -->
    <title>logo</title>
    <desc>Created with Sketch.</desc>
    <g id="Symbols" stroke="none" stroke-width="1" fill="none" fill-rule="evenodd">
        <g id="top" transform="translate(-213.000000, -24.000000)">
            <g id="logo">
                <g transform="translate(213.000000, 24.000000)">
                    <path d="M0,94.2727273 L0,7.72727273 C0,6.70263636 0.196272727,5.71663636 0.588045455,4.77004545 C0.980590909,3.82345455 1.5385,2.98813636 2.26331818,2.26331818 C2.98813636,1.5385 3.82345455,0.980590909 4.77004545,0.588045455 C5.71663636,0.196272727 6.70263636,0 7.72727273,0 L94.2727273,0 C95.2973636,0 96.2833636,0.196272727 97.2299545,0.588045455 C98.1765455,0.980590909 99.0118636,1.5385 99.7366818,2.26331818 C100.4615,2.98813636 101.019409,3.82345455 101.411955,4.77004545 C101.803727,5.71663636 102,6.70263636 102,7.72727273 L102,94.2727273 C102,95.2973636 101.803727,96.2833636 101.411955,97.2299545 C101.019409,98.1765455 100.4615,99.0118636 99.7366818,99.7366818 C99.0118636,100.4615 98.1765455,101.019409 97.2299545,101.411955 C96.2833636,101.803727 95.2973636,102 94.2727273,102 L7.72727273,102 C6.70263636,102 5.71663636,101.803727 4.77004545,101.411955 C3.82345455,101.019409 2.98813636,100.4615 2.26331818,99.7366818 C1.5385,99.0118636 0.980590909,98.1765455 0.588045455,97.2299545 C0.196272727,96.2833636 0,95.2973636 0,94.2727273" id="Fill-1" fill="#EB690B"></path>
                    <path d="M32.0677955,18.9352182 C32.9533409,18.7961273 33.8566591,18.5001727 34.7700227,18.6269 C36.6717045,18.8934909 38.6730682,19.1940818 40.2077045,19.8640364 L41.7230227,21.3793545 C41.9587045,21.5864455 42.2160227,22.3962636 42.0746136,22.6481727 C41.1558409,24.3358091 39.7147045,25.5536273 38.2743409,27.1779 C37.6306591,27.3633545 36.2675682,27.2590364 35.4515682,27.7597636 C34.6023409,27.4143545 33.4988864,27.1732636 32.1844773,27.4244 C30.7085682,27.1732636 29.4173409,27.8184909 28.8524773,28.5193545 C26.7498864,29.2619455 25.8944773,30.9472636 24.7091136,32.2531727 C22.3445682,34.8688545 20.9559773,38.8337182 21.6900682,43.7714455 C21.5710682,46.4713545 22.9897955,47.8954909 24.0043864,49.5305818 C24.74775,50.7514909 25.7468864,51.9206273 26.88975,52.7234909 C32.1064318,56.4472636 41.11025,57.3745364 49.6241591,56.4379909 C50.3304318,56.3545364 51.0591136,56.6597636 51.64175,56.6899 C52.6980682,56.0655364 54.1809318,56.2239455 55.4984318,56.0516273 C58.3119318,55.6729909 60.9940682,55.2309909 63.6298409,54.6066273 C64.7703864,54.7063091 66.0631591,54.6066273 66.6249318,54.0100818 C66.9494773,53.6608091 67.39225,53.9026727 67.9772045,53.6507636 C69.0427955,53.1894455 70.3726591,52.7003091 72.1143864,52.4955364 C73.8507045,52.2814909 75.1264773,51.5960818 76.0916136,50.9384909 C78.6787045,50.8689455 80.7333864,50.3303545 82.3337045,49.5730818 C83.1265227,49.1913545 84.0754318,49.0646273 85.1603409,49.1303091 C85.9183864,48.7006727 86.8209318,48.4248091 87.8525227,48.4348545 C88.2033409,48.4487636 88.2033409,49.2694 87.9777045,49.6186727 C87.4568864,50.4254 86.7652955,51.1154455 85.9013864,51.8843091 C85.0660682,52.1493545 84.2593409,52.7234909 83.3668409,53.5479909 C82.4094318,53.8230818 81.6853864,54.7480364 81.1529773,55.6366727 C80.1770227,56.0516273 79.19875,56.3329 78.7196591,57.1133545 C78.1432045,58.0645818 76.8311136,58.4231273 75.4997045,58.6897182 C74.9008409,59.2460818 73.9148409,59.6958091 72.8129318,59.4539455 C71.9281591,59.8449455 71.2466136,60.3201727 70.5364773,60.6787182 C70.2691136,60.8239909 69.3248409,60.7359 69.2120227,60.8379 C68.40375,61.5689 67.2114318,62.0402636 66.0206591,61.5225364 C65.6358409,61.9707182 65.3329318,62.5077636 64.96125,62.5263091 C63.4281591,62.6793091 62.5959318,63.4296273 61.1439773,63.4844909 C58.9934773,63.5834 57.1458864,64.1057636 55.3214773,64.6644455 C54.6221591,64.1474909 53.6956591,64.4782182 53.3371136,64.6567182 C52.0466591,64.8282636 51.3257045,65.4889455 50.4447955,65.6705364 C50.0259773,65.7524455 49.3251136,65.9533545 49.1643864,65.3065818 C47.9372955,65.3065818 46.4837955,65.1659455 45.3896136,65.4541727 C44.6555227,65.0229909 43.4879318,65.2563545 42.6889318,65.5770364 C41.9046136,65.2563545 41.2114773,65.6705364 40.29425,65.6419455 C38.8453864,65.6133545 37.5734773,65.4657636 36.4537955,65.1219 C34.90525,65.4425818 33.1411136,65.2609909 32.1242045,64.8043091 C31.7084773,64.6180818 31.1358864,65.2007182 30.5880227,65.0809455 C28.5920682,64.6180818 27.0759773,63.6382636 25.9439318,62.5209 C24.6017045,62.4111727 23.89775,61.6585364 23.1783409,61.2196273 C22.0408864,60.8525818 21.5332045,59.6394 20.7898409,59.0150364 C19.5658409,58.5753545 19.1230682,57.4239909 18.6694773,56.0833091 C18.6663864,56.0493091 18.3572955,55.9627636 18.1865227,55.8414455 C17.3620227,55.2781273 16.8643864,54.3639909 16.7059773,53.3988545 C16.6348864,53.0032182 16.0491591,52.3131727 16.0661591,52.0612636 C16.1565682,50.5274 15.7014318,49.3482182 15.0708864,48.2640818 C15.4595682,47.2610818 15.2988409,46.5409 14.9990227,45.5804 C16.2632045,37.0587636 19.6794318,30.9117182 24.29725,25.2460818 C24.9339773,23.2006727 27.01725,21.9697182 28.8184773,20.5254909 C29.44825,19.5132182 30.7085682,19.1330364 32.0677955,18.9352182 Z" id="Combined-Shape" fill="#FFFFFF"></path>
                    <path d="M48.9798591,79.6897409 C48.97445,79.6905136 48.9474045,79.7175591 48.9273136,79.7322409 C48.8585409,79.7044227 48.7627227,79.6804682 48.6499045,79.67815 C48.3578136,79.6766045 48.1082227,79.8280591 47.8006773,79.8450591 C47.8215409,79.8875591 47.7890864,79.9115136 47.7728591,79.9176955 C47.57195,79.9949682 47.3834045,80.0328318 47.2512682,80.1448773 C46.8594955,80.3001955 46.4893591,80.46015 46.1454955,80.6564227 C45.8356318,80.8333773 45.4971773,80.9979682 45.2414045,81.2552864 L44.2886318,81.7057864 C44.1456773,81.7822864 43.9130864,81.7923318 43.7438591,81.8719227 C43.6488136,81.8448773 43.5027682,81.7706955 43.3551773,81.8216955 C43.1759045,81.7513773 42.9742227,81.7119682 42.7570864,81.6733318 C42.7091773,81.6176955 42.61645,81.5813773 42.5299045,81.5334682 C41.97045,81.2120136 41.5902682,80.6826955 41.3638591,80.0166045 C41.3337227,80.0289682 41.2873591,80.0235591 41.30745,79.9818318 C41.2201318,79.9200136 41.1335864,79.8234227 41.0485864,79.7739682 C40.9782682,79.83115 40.8979045,79.84815 40.8546318,79.9146045 C40.6382682,80.2453318 40.4821773,80.6803773 40.5702682,81.2344227 C40.7232682,81.4198773 40.7850864,81.7227864 40.95895,81.9229227 C41.00995,81.9847409 41.0369955,82.1184227 41.1729955,82.0983318 C41.2680409,82.1717409 41.3205864,82.2953773 41.3793136,82.4058773 C41.6397227,82.6291955 41.8947227,82.8069227 42.1945409,82.9784682 C42.3498591,82.9916045 42.4734955,83.0325591 42.5855409,83.0897409 C42.6612682,83.12915 42.7679045,83.0511045 42.8590864,83.0928318 C42.9317227,83.1268318 43.0885864,83.1415136 43.2562682,83.1129227 C43.30495,83.0688773 43.4038591,83.0511045 43.5027682,83.0116955 C43.5437227,82.9946955 43.6016773,82.9946955 43.6387682,83.0634682 C43.7415409,82.9800136 43.8752227,82.8934682 44.0259045,82.8965591 C44.1441318,82.83165 44.2430409,82.7566955 44.3736318,82.7644227 L44.7599955,82.5526955 C44.9060409,82.3602864 45.1355409,82.2057409 45.3712227,82.0403773 C45.5698136,81.8997409 45.7908136,81.7706955 46.0465864,81.7142864 C46.1114955,81.5705591 46.2637227,81.4469227 46.4576773,81.4986955 C46.5164045,81.51415 46.6021773,81.4322409 46.6817682,81.4090591 C46.8934955,81.34415 47.04495,81.2367409 47.1994955,81.1046045 C47.3671773,81.0991955 47.5217227,81.0791045 47.6469045,81.0203773 C47.7365409,80.9794227 47.8462682,80.9261045 47.97995,80.9454227 C48.0046773,80.9485136 48.0332682,80.9006045 48.0680409,80.8897864 C48.1082227,80.8797409 48.1321773,80.9121955 48.1646318,80.94465 C48.3230409,80.8874682 48.5247227,80.8882409 48.7256318,80.94465 C48.8005864,80.9995136 48.8909955,81.06365 49.01695,81.1046045 C49.0602227,81.1177409 49.1034955,81.1787864 49.1429045,81.2228318 C49.5346773,81.62465 49.8723591,82.0728318 50.3019955,82.4360136 C50.5693591,82.6624227 50.7834045,82.9413773 51.2138136,83.0001045 L51.9139045,82.9838773 C52.0831318,82.9622409 52.2067682,82.8556045 52.3296318,82.7767864 C52.4285409,82.71265 52.5684045,82.6431045 52.6248136,82.5295136 C52.6248136,82.5271955 52.6928136,82.5333773 52.7152227,82.5202409 C52.9037682,82.4136045 53.0621773,82.2768318 53.2314045,82.1369682 C53.4609045,81.9445591 53.7730864,81.8216955 54.04045,81.6176955 C54.1053591,81.4994682 54.2714955,81.4013318 54.4530864,81.4276045 C54.7807227,81.2367409 55.1075864,81.1177409 55.4723136,81.0481955 C55.5882227,81.0257864 55.7304045,81.00415 55.84245,81.0651955 C55.9251318,81.0396955 56.0487682,81.0458773 56.17395,81.0543773 C56.3169045,81.1115591 56.4660409,81.1393773 56.6144045,81.2321045 C56.7164045,81.3472409 56.8717227,81.4098318 56.97295,81.53115 C57.0857682,81.6053318 57.1128136,81.7421045 57.2441773,81.7869227 C57.2758591,81.8889227 57.3654955,81.9739227 57.4481773,82.0380591 C57.4698136,82.0558318 57.5262227,82.0566045 57.5022682,82.1014227 C57.5980864,82.1701955 57.6405864,82.2598318 57.7255864,82.3409682 C57.9226318,82.5318318 58.0509045,82.7937864 58.3731318,82.88265 C58.5809955,83.1082864 58.9009045,83.2728773 59.3884955,83.2427409 C59.5523136,83.2334682 59.68445,83.1909682 59.7988136,83.1337864 C60.0978591,82.9877409 60.31345,82.7752409 60.47495,82.5387864 C60.51745,82.4769682 60.4764955,82.3680136 60.4254955,82.3092864 C60.3667682,82.2436045 60.2732682,82.20265 60.1797682,82.2049682 C60.0460864,82.2057409 59.9247682,82.1508773 59.7957227,82.1748318 C59.64195,82.0504227 59.4340864,81.9661955 59.2478591,81.8518318 C59.0144955,81.7081045 58.8475864,81.4932864 58.6667682,81.2900591 C58.6837682,81.2583773 58.6590409,81.2344227 58.6327682,81.2491045 C58.5554955,81.1154227 58.4326318,81.0373773 58.3306318,80.93615 C58.3491773,80.90215 58.3229045,80.8797409 58.2865864,80.8975136 C58.2340409,80.81715 58.1637227,80.75765 58.0995864,80.6919682 C57.8515409,80.4300136 57.5818591,80.1943318 57.2302682,80.0374682 C57.0084955,79.9370136 56.7720409,79.84815 56.4266318,79.8334682 C56.3910864,79.86515 56.2898591,79.8929682 56.17395,79.8806045 C56.0510864,79.9516955 55.8718136,79.9741045 55.7087682,80.0081045 C55.6562227,80.0189227 55.5905409,80.0189227 55.5766318,80.0822864 C55.4591773,80.0784227 55.3594955,80.1108773 55.2760409,80.1549227 C54.9947682,80.2940136 54.7351318,80.4802409 54.4353136,80.6069682 C54.3024045,80.6626045 54.1880409,80.7607409 54.0427682,80.80015 C53.7135864,81.0350591 53.3836318,81.2885136 53.0011318,81.4654682 C52.9284955,81.4994682 52.85045,81.5411955 52.7778136,81.5875591 C52.6116773,81.6949682 52.4664045,81.7954227 52.2546773,81.7954227 C52.16195,81.7938773 52.1039955,81.8448773 52.0305864,81.8294227 C51.4966318,81.71815 51.1434955,81.4152409 50.8498591,81.0829682 C50.8243591,81.0512864 50.8297682,80.9894682 50.7864955,81.0095591 C50.6365864,80.8241045 50.4828136,80.6456045 50.2880864,80.4879682 C50.18145,80.2661955 49.9820864,80.0938773 49.7711318,79.9516955 C49.77345,79.9431955 49.7409955,79.9277409 49.72245,79.9176955 C49.6011318,79.8411955 49.4944955,79.78015 49.3283591,79.7384227 C49.2534045,79.6897409 49.1243591,79.6364227 48.9798591,79.6897409 M64.4985409,74.1948773 C64.49545,74.2026045 64.4838591,74.2311955 64.4761318,74.2389227 C64.3447682,74.4120136 64.1940864,74.6013318 64.1817227,74.8849227 C64.0372227,75.56415 63.8092682,76.18465 63.7157682,76.9349682 L63.7080409,77.4534682 C63.6732682,77.8483318 63.6083591,78.2370136 63.5310864,78.6032864 C63.5171773,78.6805591 63.5782227,78.7640136 63.5782227,78.8428318 C63.5782227,78.9224227 63.5334045,78.9973773 63.5310864,79.0738773 L63.5334045,79.5684227 C63.5913591,80.0359227 63.7768136,80.4106955 64.1678136,80.5358773 C64.4289955,80.4709682 64.6445864,80.36665 64.8547682,80.2553773 C64.8733136,80.2468773 64.8733136,80.1788773 64.9088591,80.1974227 C64.9938591,80.1062409 65.1383591,80.1008318 65.2055864,80.0057864 C65.34545,79.9431955 65.40495,79.8010136 65.6282682,79.8411955 C65.6499045,79.8450591 65.65995,79.7925136 65.67695,79.7878773 C65.7665864,79.7616045 65.8631773,79.7639227 65.9783136,79.7670136 C66.6876773,79.5529682 67.6551318,79.6256045 68.1921773,79.9516955 C68.3606318,79.9934227 68.4572227,80.1224682 68.58395,80.20515 C68.7956773,80.3388318 68.9780409,80.4956955 69.1372227,80.6687864 C69.1866773,80.6579682 69.2114045,80.68965 69.2160409,80.7027864 C69.27245,80.8975136 69.3790864,81.0242409 69.4687227,81.1610136 C69.5374955,81.2691955 69.6093591,81.4755136 69.4949955,81.5806045 L69.1588591,81.8077864 C68.9819045,81.8379227 68.8010864,81.8951045 68.58395,81.9831955 C68.3181318,81.9723773 67.9642227,81.9515136 67.7246773,82.0797864 C67.6079955,82.0357409 67.4094045,82.0280136 67.2726318,82.0790136 C67.1003136,82.0558318 66.94345,82.0303318 66.7865864,81.9468773 L65.7225409,81.8240136 C65.6792682,81.8186045 65.6475864,81.7853773 65.6699955,81.7397864 C65.6043136,81.7421045 65.5564045,81.6911045 65.5115864,81.6949682 C65.4443591,81.6996045 65.3609045,81.7459682 65.3160864,81.7243318 C65.0209045,81.5806045 64.7102682,81.4592864 64.4861773,81.2583773 C64.4498591,81.2746045 64.3911318,81.2939227 64.3609955,81.3116955 C64.3123136,81.3418318 64.3161773,81.4322409 64.2458591,81.4608318 C64.2427682,81.53965 64.2265409,81.6285136 64.2968591,81.7243318 C64.1631773,81.8317409 64.0341318,82.0504227 64.1314955,82.2992409 C64.20645,82.3857864 64.3231318,82.4383318 64.4421318,82.4846955 C64.5062682,82.5650591 64.60595,82.6291955 64.7388591,82.6075591 C64.7659045,82.6647409 64.8547682,82.6755591 64.8408591,82.7474227 C64.9088591,82.78915 64.9984955,82.7706045 65.0533591,82.7922409 C65.2156318,82.8525136 65.3987682,82.88265 65.52395,82.9645591 C65.5463591,82.9784682 65.6375409,82.9645591 65.6661318,82.9645591 C65.6584045,82.9946955 65.6645864,83.0341045 65.7009045,83.0418318 C65.73645,83.0480136 65.8631773,83.0371955 65.9025864,83.0449227 C65.9211318,83.0480136 65.9783136,83.0974682 66.0154045,83.1013318 L66.3337682,83.1082864 C66.5323591,83.1554227 66.8059045,83.1523318 66.9844045,83.1979227 C67.1196318,83.2891045 67.2687682,83.2775136 67.3877682,83.2010136 L68.12495,83.2156955 C68.1921773,83.2164682 68.3127227,83.1013318 68.3529045,83.1013318 C68.5105409,83.1098318 68.6589045,83.0905136 68.8088136,83.0758318 C68.8636773,83.0688773 68.92395,83.0263773 68.9819045,83.0062864 C69.2454045,82.9181955 69.4154045,82.7644227 69.6564955,82.6183773 C69.7121318,82.5828318 69.7175409,82.5210136 69.7878591,82.4692409 C69.8326773,82.43215 69.8697682,82.3950591 69.8581773,82.3162409 C69.9501318,82.2381955 70.02045,82.1014227 70.0335864,81.9762409 C70.3898136,81.5875591 70.4755864,80.7777409 70.2252227,80.2808773 C70.2028136,80.1162864 70.06295,80.0451955 69.98645,79.9269682 C69.8326773,79.6943773 69.5583591,79.5614682 69.3844955,79.3520591 C69.1557682,79.0846955 68.8914955,78.8814682 68.4950864,78.7586045 C68.3853591,78.7678773 68.2771773,78.7416045 68.2315864,78.6566045 C67.7949955,78.49665 67.2100409,78.4417864 66.6111773,78.4657409 C66.4087227,78.5368318 66.1243591,78.5198318 65.9188136,78.5978773 C65.8330409,78.6311045 65.7604045,78.5870591 65.6645864,78.6697409 C65.6584045,78.6720591 65.6645864,78.7361955 65.6645864,78.7570591 C65.6475864,78.7586045 65.5989045,78.7632409 65.5865409,78.7694227 C65.2287682,78.9332409 64.88645,79.1009227 64.5727227,79.2910136 C64.5433591,79.3080136 64.4575864,79.2910136 64.4297682,79.2910136 C64.4197227,79.2570136 64.39345,79.2322864 64.3548136,79.2183773 L64.3262227,78.9355591 C64.28295,78.6759227 64.2288591,78.2563318 64.2427682,77.8815591 C64.2458591,77.8545136 64.2729045,77.7702864 64.2945409,77.7378318 C64.33395,77.6791045 64.33395,77.6056955 64.3076773,77.5346045 C64.29995,77.5121955 64.3393591,77.4372409 64.3393591,77.4156045 C64.3393591,77.3893318 64.2968591,77.31515 64.3014955,77.29815 L64.3957682,76.9202864 C64.4089045,76.8615591 64.3532682,76.7920136 64.3694955,76.7611045 C64.4197227,76.6621955 64.4027227,76.5385591 64.3957682,76.3986955 C64.46995,76.1236045 64.5085864,75.8060136 64.5626773,75.4984682 C64.6268136,75.1275591 64.7496773,74.7898773 64.7125864,74.3262409 C64.7064045,74.2628773 64.6986773,74.1832864 64.6268136,74.16165 C64.5858591,74.1508318 64.5248136,74.14465 64.4985409,74.1948773 M28.6308591,78.0098318 C28.3016773,78.0453773 28.0443591,78.1558773 27.8272227,78.31815 C27.8024955,78.3366955 27.7623136,78.3413318 27.7259955,78.3366955 C27.6680409,78.4178318 27.6193591,78.5028318 27.5351318,78.5584682 C27.5490409,78.5878318 27.5258591,78.6117864 27.5003591,78.5978773 L27.1966773,78.8922864 C26.80645,79.4161955 26.5452682,80.0938773 26.4123591,80.8519227 L26.4092682,81.3333318 C26.4440409,81.5775136 26.5452682,81.7884682 26.5738591,82.05815 C26.5784955,82.1014227 26.5900864,82.1524227 26.6434045,82.1833318 C26.7330409,82.2335591 26.7539045,82.3448318 26.75545,82.4615136 C26.9138591,82.6438773 27.0815409,82.7706045 27.2183136,82.9715136 C27.3697682,83.0480136 27.5467227,83.1214227 27.7267682,83.2187864 C27.8674045,83.2504682 28.0412682,83.2666955 28.2112682,83.3424227 C28.3611773,83.3115136 28.5790864,83.2504682 28.7884955,83.3192409 C28.8758136,83.2829227 28.9948136,83.2473773 29.1400864,83.2636045 C29.2189045,83.2249682 29.3039045,83.1523318 29.4213591,83.1600591 C29.6160864,83.1059682 29.8363136,83.03565 29.9707682,82.89965 C30.2265409,82.7991955 30.4722682,82.6570136 30.65695,82.4692409 C30.8818136,82.3278318 31.1120864,82.1663318 31.1615409,81.8533773 C31.3809955,81.8085591 31.4783591,81.6470591 31.5958136,81.5102864 C31.6846773,81.4059682 31.6978136,81.2189682 31.8492682,81.1733773 C31.8933136,81.1610136 31.97445,81.1100136 32.0138591,81.1471045 C32.0671773,81.2019682 32.1004045,81.2807864 32.1467682,81.3472409 C32.3005409,81.5751955 32.5076318,81.7397864 32.6397682,81.9924682 C32.8337227,82.1616955 32.9890409,82.3494682 33.2208591,82.4800591 C33.3869955,82.5751045 33.5430864,82.7064682 33.7733591,82.7250136 C33.8112227,82.72965 33.8174045,82.7706045 33.8344045,82.78065 C33.8660864,82.7968773 33.9819955,82.8123318 34.0167682,82.8069227 C34.1280409,82.7922409 34.2022227,82.84015 34.2918591,82.88265 C34.5800864,82.8416955 34.9162227,82.7505136 35.2345864,82.8416955 C35.2670409,82.8509682 35.3180409,82.8478773 35.3605409,82.8092409 C35.4293136,82.7505136 35.5282227,82.7427864 35.6534045,82.7366045 C36.07995,82.6253318 36.36045,82.3687864 36.6023136,82.08365 C36.7622682,81.8981955 37.0195864,81.8085591 37.1609955,81.6006955 C37.3132227,81.4901955 37.4839955,81.3766045 37.5543136,81.2135591 C37.5914045,81.1347409 37.6362227,81.0265591 37.5720864,80.9771045 C37.5519955,80.9624227 37.4376318,80.9539227 37.4098136,80.9693773 C37.32095,81.0226955 37.2127682,81.0736955 37.0605409,81.0760136 C36.6981318,81.3472409 36.1966318,81.4994682 35.7013136,81.6547864 C35.46795,81.6424227 35.3195864,81.7397864 35.0839045,81.71815 C34.4301773,81.65865 33.8823136,81.4708773 33.5005864,81.1393773 C33.3537682,81.0118773 33.26645,80.8241045 33.0972227,80.7112864 C32.9341773,80.5096045 32.8491773,80.2252409 32.7842682,79.8983773 C32.8337227,79.6155591 32.7324955,79.3651955 32.5957227,79.2052409 C32.5640409,79.1673773 32.41645,79.1650591 32.38245,79.2230136 C32.2572682,79.4386045 32.1112227,79.6317864 32.0285409,79.88215 C31.9180409,80.2190591 31.6661318,80.4439227 31.4343136,80.66415 C31.4026318,80.6919682 31.4157682,80.7931955 31.3377227,80.7777409 C31.2836318,80.8565591 31.1916773,80.90215 31.1120864,80.9670591 C30.7087227,81.2977864 30.3579045,81.66715 29.8293591,81.8804227 C29.5975409,81.9739227 29.3209045,82.0179682 29.06745,82.0705136 L28.4624045,81.9971045 C28.4075409,81.9878318 28.2908591,82.0681955 28.1934955,81.9971045 C28.0690864,81.91365 27.8735864,81.8742409 27.7437682,81.76915 C27.4408591,81.5203318 27.2685409,81.1509682 27.2554045,80.6146955 C27.2453591,80.2345136 27.3952682,79.8682409 27.5652682,79.6256045 C27.8419045,79.22765 28.22595,78.9170136 28.8680864,78.8938318 C28.88045,78.9170136 28.8897227,78.9448318 28.9152227,78.9502409 C28.9507682,78.9587409 29.0612682,78.9548773 29.0612682,78.9548773 L29.5256773,79.0800591 C29.8015409,79.0027864 29.9676773,78.8258318 30.1909955,78.6805591 C30.1770864,78.5538318 30.0967227,78.4363773 30.0171318,78.3560136 C29.8455864,78.2733318 29.6423591,78.2176955 29.4847227,78.1010136 C29.3100864,78.0453773 29.0829045,78.0476955 28.8835409,77.9982409 C28.8132227,77.9796955 28.7174045,78.0013318 28.6308591,78.0098318 M15.8035864,77.1698773 C15.6227682,77.19615 15.4550864,77.2463773 15.3708591,77.3816045 C15.1313136,77.5740136 14.8539045,77.7378318 14.7696773,78.0098318 C14.1545864,78.7640136 13.69945,79.5823318 13.5309955,80.7174682 C13.5711773,80.8457409 13.5928136,80.9407864 13.5410409,81.0744682 C13.6244955,81.2189682 13.6855409,81.3766045 13.6731773,81.5806045 C13.6708591,81.6138318 13.7489045,81.7057864 13.7581773,81.7583318 C13.7798136,81.8866045 13.8454955,82.0086955 13.9552227,82.08365 C13.9784045,82.0998773 14.0193591,82.1114682 14.0193591,82.1161045 C14.0796318,82.2946045 14.1391318,82.4476045 14.3021773,82.5063318 C14.4010864,82.5890136 14.4683136,82.7505136 14.6205409,82.7991955 C14.7163591,82.8586955 14.8098591,82.9583773 14.9883591,82.9730591 C15.1390409,83.1214227 15.3407227,83.2520136 15.6073136,83.3138318 C15.67995,83.3292864 15.7556773,83.2520136 15.8113136,83.2775136 C15.9465409,83.3377864 16.18145,83.3617409 16.3877682,83.3192409 C16.5369045,83.3648318 16.7061318,83.3849227 16.8993136,83.3887864 C17.0214045,83.39265 17.1133591,83.3370136 17.2176773,83.3795136 C17.3243136,83.3370136 17.4796318,83.3061045 17.5777682,83.3632864 C17.7230409,83.3254227 17.9169955,83.3439682 18.0800409,83.3439682 C18.1016773,83.4297409 18.1951773,83.4034682 18.2508136,83.39265 C18.3682682,83.3679227 18.4640864,83.2798318 18.6356318,83.2574227 C18.6835409,83.2334682 18.8071773,83.1894227 18.8999045,83.2581955 C19.1425409,83.1840136 19.3890409,83.1144682 19.67495,83.1013318 C19.8689045,83.0936045 19.9794045,82.9939227 20.1834045,82.9738318 C20.2328591,82.9715136 20.2730409,82.89965 20.3248136,82.84015 C20.4832227,82.9089227 20.6424045,82.8463318 20.7498136,82.7489682 C20.7644955,82.7350591 20.89045,82.7474227 20.9252227,82.7281045 C21.0202682,82.6801955 21.11145,82.6168318 21.2289045,82.5650591 C21.3757227,82.5967409 21.5070864,82.5372409 21.5866773,82.4630591 C21.7636318,82.4275136 21.9390409,82.3796045 22.0155409,82.2528773 C22.0789045,82.1493318 22.2094955,82.1114682 22.3393136,82.0566045 C22.4104045,81.9383773 22.5069955,81.8147409 22.6344955,81.7784227 C22.7534955,81.6686955 22.8601318,81.5921955 22.9714045,81.55665 C23.0865409,81.45465 23.1784955,81.3626955 23.2480409,81.2552864 C23.2781773,81.2089227 23.2781773,81.0991955 23.2318136,81.09765 C23.0934955,81.0961045 22.9737227,81.1331955 22.8732682,81.1896045 C22.7287682,81.1811045 22.6020409,81.1981045 22.49695,81.2491045 C22.2836773,81.3495591 22.0101318,81.4214227 21.6654955,81.4306955 C21.5372227,81.5180136 21.3672227,81.6091955 21.1361773,81.6377864 C20.9043591,81.6656045 20.7266318,81.7305136 20.5852227,81.7923318 C20.5071773,81.8255591 20.44845,81.7938773 20.4051773,81.8394682 C20.3302227,81.9190591 20.1579045,81.9321955 20.00645,81.9190591 C19.6548591,82.0025136 19.2978591,82.0612409 18.9238591,82.1114682 C18.7476773,82.13465 18.5506318,82.1137864 18.4099955,82.1964682 C18.33195,82.1926045 18.2353591,82.1524227 18.1410864,82.1632409 C17.0074955,82.28765 15.8089955,82.1647864 15.1143136,81.6686955 C14.9620864,81.5612864 14.8291773,81.4059682 14.7302682,81.2436955 C14.5950409,81.0257864 14.4057227,80.8356955 14.42195,80.47715 C14.3245864,79.8187864 14.5092682,79.2910136 14.8237682,78.9432864 C14.9814045,78.7694227 15.0957682,78.5445591 15.3754955,78.44565 C15.45045,78.3529227 15.6227682,78.2663773 15.8190409,78.2996045 C15.99445,78.2663773 16.1412682,78.2988318 16.2540864,78.3444227 C16.3630409,78.2779682 16.5446318,78.2918773 16.6304045,78.26715 C16.8220409,78.0507864 17.0136773,77.8885136 17.1365409,77.66365 C17.1550864,77.6304227 17.1210864,77.5222409 17.0894045,77.4951955 L16.8877227,77.2927409 C16.68295,77.2038773 16.4163591,77.1636955 16.1636773,77.1289227 C16.0423591,77.1119227 15.9218136,77.1513318 15.8035864,77.1698773 M86.2593136,78.1829227 C86.1835864,78.1836955 86.0815864,78.1535591 85.9865409,78.1829227 C85.7145409,78.1751955 85.5028136,78.2339227 85.34595,78.3598773 C85.2624955,78.3529227 85.1798136,78.3876955 85.07395,78.4240136 C84.9920409,78.5430136 84.7872682,78.6009682 84.6504955,78.7106955 C84.44495,78.8799227 84.1652227,78.9595136 84.0276773,79.1928773 C84.0392682,79.3226955 84.1064955,79.3999682 84.1760409,79.4648773 C84.2332227,79.5135591 84.3298136,79.4386045 84.4202227,79.4169682 C84.5917682,79.3744682 84.8011773,79.2941045 84.9642227,79.1897864 C85.1496773,79.1843773 85.2964955,79.1434227 85.4147227,79.0754227 C85.6674045,79.06615 85.9185409,79.0437409 86.1526773,79.0568773 C86.3543591,79.0684682 86.4633136,79.1781955 86.6928136,79.2029227 C87.0042227,79.3906955 87.3233591,79.6171045 87.5428136,79.9455136 C87.5760409,79.9972864 87.6046318,80.07765 87.5829955,80.1379227 C87.5582682,80.20515 87.5891773,80.2623318 87.6185409,80.3141045 C87.6533136,80.3821045 87.6618136,80.4647864 87.6231773,80.5250591 C87.5505409,80.6409682 87.4949045,80.7692409 87.4168591,80.8743318 C87.2514955,81.09765 87.0158136,81.2560591 86.7979045,81.4322409 C86.6534045,81.6277409 86.37445,81.6872409 86.1681318,81.7977409 C85.9077227,81.8448773 85.59245,81.8448773 85.2988136,81.8533773 C84.9704045,81.8641955 84.7293136,81.7637409 84.4047682,81.7305136 C84.1397227,81.55665 83.7525864,81.4639227 83.4798136,81.2583773 C83.2588136,81.0899227 83.0540409,80.9075591 82.8539045,80.7174682 L82.4095864,80.0119682 C82.3531773,79.8149227 82.3508591,79.5576045 82.3168591,79.3651955 C82.1947682,79.2013773 82.1290864,79.0352409 81.9892227,78.9517864 C81.8045409,79.0553318 81.6778136,79.1967409 81.5951318,79.3945591 C81.5758136,79.4378318 81.56345,79.5321045 81.5194045,79.58465 C81.36795,79.7708773 81.2358136,80.0235591 81.2922227,80.4215136 C81.3030409,80.5211955 81.3710409,80.6077409 81.3486318,80.7468318 C81.4004045,80.8635136 81.4776773,80.9755591 81.5085864,81.1270136 C81.7311318,81.55665 82.0108591,81.9383773 82.39645,82.2057409 C82.7982682,82.5689227 83.3159955,82.8308773 83.93495,82.9715136 L84.1922682,83.0835591 C84.3962682,83.0178773 84.6566773,83.0433773 84.8374955,83.0858773 C85.09095,83.0178773 85.3019045,83.0565136 85.5569045,83.0055136 C85.6125409,82.9916045 85.67745,82.95915 85.7099045,82.9529682 C85.8629045,82.9073773 85.9803591,82.8154227 86.1302682,82.7860591 C86.2461773,82.6508318 86.4161773,82.5720136 86.6031773,82.5271955 C86.7646773,82.3656955 86.8713136,82.1748318 87.0930864,82.08365 C87.2514955,81.8410136 87.4639955,81.6370136 87.6911773,81.4098318 C87.6842227,81.4160136 87.6942682,81.3943773 87.70895,81.3735136 C87.8588591,81.1772409 88.0775409,81.0559227 88.1494045,80.7522409 C88.2181773,80.7027864 88.3418136,80.6154682 88.2962227,80.4508773 C88.3781318,80.3202864 88.4832227,80.1464227 88.4685409,79.9625136 C88.4121318,79.3481955 88.1439955,78.9680136 87.8248591,78.6148773 C87.5860864,78.4912409 87.3364955,78.3668318 87.0907682,78.2231045 C86.8380864,78.2370136 86.6286773,78.2030136 86.4439955,78.1303773 C86.4208136,78.1203318 86.3211318,78.1829227 86.2593136,78.1829227 M76.0175864,78.4719227 C75.8954955,78.5028318 75.8213136,78.5978773 75.7247227,78.7045136 C75.6544045,78.9262864 75.5717227,79.1496045 75.4504045,79.3265591 C75.4171773,79.5282409 75.42645,79.7314682 75.4318591,79.9130591 C75.4426773,80.4640136 75.4187227,80.9732409 75.4473136,81.6192409 C75.4079045,81.70115 75.4079045,81.9546045 75.5099045,82.0998773 C75.48595,82.2830136 75.48595,82.4715591 75.5493136,82.6315136 C75.6003136,82.7566955 75.7432682,82.7961045 75.8267227,82.9073773 C75.9094045,82.9073773 76.0036773,82.88265 76.0940864,82.8710591 C76.17445,82.8602409 76.2061318,82.8123318 76.2432227,82.76365 C76.3374955,82.6415591 76.4116773,82.4955136 76.5924955,82.4676955 C76.6450409,82.3463773 76.6257227,82.1748318 76.6218591,81.9739227 C76.5577227,81.8240136 76.4093591,81.6045591 76.4201773,81.3657864 C76.4449045,81.0049227 76.3838591,80.6069682 76.3915864,80.1765591 C76.31895,79.9864682 76.2772227,79.63565 76.3684045,79.4076955 C76.3143136,79.1998318 76.34445,78.9401955 76.3220409,78.7400591 C76.2354955,78.7037409 76.2354955,78.6148773 76.1860409,78.56465 C76.1396773,78.5151955 76.0971773,78.4487409 76.0175864,78.4719227 M75.9974955,76.04865 C75.9905409,76.0525136 75.9812682,76.0679682 75.9758591,76.0710591 C75.7788136,76.2395136 75.6381773,76.4937409 75.5670864,76.7611045 C75.5423591,76.8546045 75.4171773,76.9504227 75.4534955,77.0145591 C75.5477682,77.1868773 75.6296773,77.3731045 75.7092682,77.5585591 C75.8800409,77.71465 76.1342682,77.8205136 76.4642227,77.80815 C76.6628136,77.7254682 76.7833591,77.5585591 76.9579955,77.42565 C76.9788591,77.4101955 76.9919955,77.2293773 76.9626318,77.1822409 C76.8946318,77.0578318 76.7910864,76.9519682 76.6867682,76.8414682 C76.4850864,76.6343773 76.3939045,76.30365 76.2177227,76.0664227 C76.17445,76.0069227 76.0616318,76.0216045 75.9974955,76.04865" id="Fill-7" fill="#FFFFFF"></path>
                    <path d="M48.9798591,79.6897409 C49.1243591,79.6364227 49.2534045,79.6897409 49.3283591,79.7384227 C49.4944955,79.78015 49.6011318,79.8411955 49.72245,79.9176955 C49.7409955,79.9277409 49.77345,79.9431955 49.7711318,79.9516955 C49.9820864,80.0938773 50.18145,80.2661955 50.2880864,80.4879682 C50.4828136,80.6456045 50.6365864,80.8241045 50.7864955,81.0095591 C50.8297682,80.9894682 50.8243591,81.0512864 50.8498591,81.0829682 C51.1434955,81.4152409 51.4966318,81.71815 52.0305864,81.8294227 C52.1039955,81.8448773 52.16195,81.7938773 52.2546773,81.7954227 C52.4664045,81.7954227 52.6116773,81.6949682 52.7778136,81.5875591 C52.85045,81.5411955 52.9284955,81.4994682 53.0011318,81.4654682 C53.3836318,81.2885136 53.7135864,81.0350591 54.0427682,80.80015 C54.1880409,80.7607409 54.3024045,80.6626045 54.4353136,80.6069682 C54.7351318,80.4802409 54.9947682,80.2940136 55.2760409,80.1549227 C55.3594955,80.1108773 55.4591773,80.0784227 55.5766318,80.0822864 C55.5905409,80.0189227 55.6562227,80.0189227 55.7087682,80.0081045 C55.8718136,79.9741045 56.0510864,79.9516955 56.17395,79.8806045 C56.2898591,79.8929682 56.3910864,79.86515 56.4266318,79.8334682 C56.7720409,79.84815 57.0084955,79.9370136 57.2302682,80.0374682 C57.5818591,80.1943318 57.8515409,80.4300136 58.0995864,80.6919682 C58.1637227,80.75765 58.2340409,80.81715 58.2865864,80.8975136 C58.3229045,80.8797409 58.3491773,80.90215 58.3306318,80.93615 C58.4326318,81.0373773 58.5554955,81.1154227 58.6327682,81.2491045 C58.6590409,81.2344227 58.6837682,81.2583773 58.6667682,81.2900591 C58.8475864,81.4932864 59.0144955,81.7081045 59.2478591,81.8518318 C59.4340864,81.9661955 59.64195,82.0504227 59.7957227,82.1748318 C59.9247682,82.1508773 60.0460864,82.2057409 60.1797682,82.2049682 C60.2732682,82.20265 60.3667682,82.2436045 60.4254955,82.3092864 C60.4764955,82.3680136 60.51745,82.4769682 60.47495,82.5387864 C60.31345,82.7752409 60.0978591,82.9877409 59.7988136,83.1337864 C59.68445,83.1909682 59.5523136,83.2334682 59.3884955,83.2427409 C58.9009045,83.2728773 58.5809955,83.1082864 58.3731318,82.88265 C58.0509045,82.7937864 57.9226318,82.5318318 57.7255864,82.3409682 C57.6405864,82.2598318 57.5980864,82.1701955 57.5022682,82.1014227 C57.5262227,82.0566045 57.4698136,82.0558318 57.4481773,82.0380591 C57.3654955,81.9739227 57.2758591,81.8889227 57.2441773,81.7869227 C57.1128136,81.7421045 57.0857682,81.6053318 56.97295,81.53115 C56.8717227,81.4098318 56.7164045,81.3472409 56.6144045,81.2321045 C56.4660409,81.1393773 56.3169045,81.1115591 56.17395,81.0543773 C56.0487682,81.0458773 55.9251318,81.0396955 55.84245,81.0651955 C55.7304045,81.00415 55.5882227,81.0257864 55.4723136,81.0481955 C55.1075864,81.1177409 54.7807227,81.2367409 54.4530864,81.4276045 C54.2714955,81.4013318 54.1053591,81.4994682 54.04045,81.6176955 C53.7730864,81.8216955 53.4609045,81.9445591 53.2314045,82.1369682 C53.0621773,82.2768318 52.9037682,82.4136045 52.7152227,82.5202409 C52.6928136,82.5333773 52.6248136,82.5271955 52.6248136,82.5295136 C52.5684045,82.6431045 52.4285409,82.71265 52.3296318,82.7767864 C52.2067682,82.8556045 52.0831318,82.9622409 51.9139045,82.9838773 L51.2138136,83.0001045 C50.7834045,82.9413773 50.5693591,82.6624227 50.3019955,82.4360136 C49.8723591,82.0728318 49.5346773,81.62465 49.1429045,81.2228318 C49.1034955,81.1787864 49.0602227,81.1177409 49.01695,81.1046045 C48.8909955,81.06365 48.8005864,80.9995136 48.7256318,80.94465 C48.5247227,80.8882409 48.3230409,80.8874682 48.1646318,80.94465 C48.1321773,80.9121955 48.1082227,80.8797409 48.0680409,80.8897864 C48.0332682,80.9006045 48.0046773,80.9485136 47.97995,80.9454227 C47.8462682,80.9261045 47.7365409,80.9794227 47.6469045,81.0203773 C47.5217227,81.0791045 47.3671773,81.0991955 47.1994955,81.1046045 C47.04495,81.2367409 46.8934955,81.34415 46.6817682,81.4090591 C46.6021773,81.4322409 46.5164045,81.51415 46.4576773,81.4986955 C46.2637227,81.4469227 46.1114955,81.5705591 46.0465864,81.7142864 C45.7908136,81.7706955 45.5698136,81.8997409 45.3712227,82.0403773 C45.1355409,82.2057409 44.9060409,82.3602864 44.7599955,82.5526955 L44.3736318,82.7644227 C44.2430409,82.7566955 44.1441318,82.83165 44.0259045,82.8965591 C43.8752227,82.8934682 43.7415409,82.9800136 43.6387682,83.0634682 C43.6016773,82.9946955 43.5437227,82.9946955 43.5027682,83.0116955 C43.4038591,83.0511045 43.30495,83.0688773 43.2562682,83.1129227 C43.0885864,83.1415136 42.9317227,83.1268318 42.8590864,83.0928318 C42.7679045,83.0511045 42.6612682,83.12915 42.5855409,83.0897409 C42.4734955,83.0325591 42.3498591,82.9916045 42.1945409,82.9784682 C41.8947227,82.8069227 41.6397227,82.6291955 41.3793136,82.4058773 C41.3205864,82.2953773 41.2680409,82.1717409 41.1729955,82.0983318 C41.0369955,82.1184227 41.00995,81.9847409 40.95895,81.9229227 C40.7850864,81.7227864 40.7232682,81.4198773 40.5702682,81.2344227 C40.4821773,80.6803773 40.6382682,80.2453318 40.8546318,79.9146045 C40.8979045,79.84815 40.9782682,79.83115 41.0485864,79.7739682 C41.1335864,79.8234227 41.2201318,79.9200136 41.30745,79.9818318 C41.2873591,80.0235591 41.3337227,80.0289682 41.3638591,80.0166045 C41.5902682,80.6826955 41.97045,81.2120136 42.5299045,81.5334682 C42.61645,81.5813773 42.7091773,81.6176955 42.7570864,81.6733318 C42.9742227,81.7119682 43.1759045,81.7513773 43.3551773,81.8216955 C43.5027682,81.7706955 43.6488136,81.8448773 43.7438591,81.8719227 C43.9130864,81.7923318 44.1456773,81.7822864 44.2886318,81.7057864 L45.2414045,81.2552864 C45.4971773,80.9979682 45.8356318,80.8333773 46.1454955,80.6564227 C46.4893591,80.46015 46.8594955,80.3001955 47.2512682,80.1448773 C47.3834045,80.0328318 47.57195,79.9949682 47.7728591,79.9176955 C47.7890864,79.9115136 47.8215409,79.8875591 47.8006773,79.8450591 C48.1082227,79.8280591 48.3578136,79.6766045 48.6499045,79.67815 C48.7627227,79.6804682 48.8585409,79.7044227 48.9273136,79.7322409 C48.9474045,79.7175591 48.97445,79.6905136 48.9798591,79.6897409 M64.4985409,74.1948773 C64.5248136,74.14465 64.5858591,74.1508318 64.6268136,74.16165 C64.6986773,74.1832864 64.7064045,74.2628773 64.7125864,74.3262409 C64.7496773,74.7898773 64.6268136,75.1275591 64.5626773,75.4984682 C64.5085864,75.8060136 64.46995,76.1236045 64.3957682,76.3986955 C64.4027227,76.5385591 64.4197227,76.6621955 64.3694955,76.7611045 C64.3532682,76.7920136 64.4089045,76.8615591 64.3957682,76.9202864 L64.3014955,77.29815 C64.2968591,77.31515 64.3393591,77.3893318 64.3393591,77.4156045 C64.3393591,77.4372409 64.29995,77.5121955 64.3076773,77.5346045 C64.33395,77.6056955 64.33395,77.6791045 64.2945409,77.7378318 C64.2729045,77.7702864 64.2458591,77.8545136 64.2427682,77.8815591 C64.2288591,78.2563318 64.28295,78.6759227 64.3262227,78.9355591 L64.3548136,79.2183773 C64.39345,79.2322864 64.4197227,79.2570136 64.4297682,79.2910136 C64.4575864,79.2910136 64.5433591,79.3080136 64.5727227,79.2910136 C64.88645,79.1009227 65.2287682,78.9332409 65.5865409,78.7694227 C65.5989045,78.7632409 65.6475864,78.7586045 65.6645864,78.7570591 C65.6645864,78.7361955 65.6584045,78.6720591 65.6645864,78.6697409 C65.7604045,78.5870591 65.8330409,78.6311045 65.9188136,78.5978773 C66.1243591,78.5198318 66.4087227,78.5368318 66.6111773,78.4657409 C67.2100409,78.4417864 67.7949955,78.49665 68.2315864,78.6566045 C68.2771773,78.7416045 68.3853591,78.7678773 68.4950864,78.7586045 C68.8914955,78.8814682 69.1557682,79.0846955 69.3844955,79.3520591 C69.5583591,79.5614682 69.8326773,79.6943773 69.98645,79.9269682 C70.06295,80.0451955 70.2028136,80.1162864 70.2252227,80.2808773 C70.4755864,80.7777409 70.3898136,81.5875591 70.0335864,81.9762409 C70.02045,82.1014227 69.9501318,82.2381955 69.8581773,82.3162409 C69.8697682,82.3950591 69.8326773,82.43215 69.7878591,82.4692409 C69.7175409,82.5210136 69.7121318,82.5828318 69.6564955,82.6183773 C69.4154045,82.7644227 69.2454045,82.9181955 68.9819045,83.0062864 C68.92395,83.0263773 68.8636773,83.0688773 68.8088136,83.0758318 C68.6589045,83.0905136 68.5105409,83.1098318 68.3529045,83.1013318 C68.3127227,83.1013318 68.1921773,83.2164682 68.12495,83.2156955 L67.3877682,83.2010136 C67.2687682,83.2775136 67.1196318,83.2891045 66.9844045,83.1979227 C66.8059045,83.1523318 66.5323591,83.1554227 66.3337682,83.1082864 L66.0154045,83.1013318 C65.9783136,83.0974682 65.9211318,83.0480136 65.9025864,83.0449227 C65.8631773,83.0371955 65.73645,83.0480136 65.7009045,83.0418318 C65.6645864,83.0341045 65.6584045,82.9946955 65.6661318,82.9645591 C65.6375409,82.9645591 65.5463591,82.9784682 65.52395,82.9645591 C65.3987682,82.88265 65.2156318,82.8525136 65.0533591,82.7922409 C64.9984955,82.7706045 64.9088591,82.78915 64.8408591,82.7474227 C64.8547682,82.6755591 64.7659045,82.6647409 64.7388591,82.6075591 C64.60595,82.6291955 64.5062682,82.5650591 64.4421318,82.4846955 C64.3231318,82.4383318 64.20645,82.3857864 64.1314955,82.2992409 C64.0341318,82.0504227 64.1631773,81.8317409 64.2968591,81.7243318 C64.2265409,81.6285136 64.2427682,81.53965 64.2458591,81.4608318 C64.3161773,81.4322409 64.3123136,81.3418318 64.3609955,81.3116955 C64.3911318,81.2939227 64.4498591,81.2746045 64.4861773,81.2583773 C64.7102682,81.4592864 65.0209045,81.5806045 65.3160864,81.7243318 C65.3609045,81.7459682 65.4443591,81.6996045 65.5115864,81.6949682 C65.5564045,81.6911045 65.6043136,81.7421045 65.6699955,81.7397864 C65.6475864,81.7853773 65.6792682,81.8186045 65.7225409,81.8240136 L66.7865864,81.9468773 C66.94345,82.0303318 67.1003136,82.0558318 67.2726318,82.0790136 C67.4094045,82.0280136 67.6079955,82.0357409 67.7246773,82.0797864 C67.9642227,81.9515136 68.3181318,81.9723773 68.58395,81.9831955 C68.8010864,81.8951045 68.9819045,81.8379227 69.1588591,81.8077864 L69.4949955,81.5806045 C69.6093591,81.4755136 69.5374955,81.2691955 69.4687227,81.1610136 C69.3790864,81.0242409 69.27245,80.8975136 69.2160409,80.7027864 C69.2114045,80.68965 69.1866773,80.6579682 69.1372227,80.6687864 C68.9780409,80.4956955 68.7956773,80.3388318 68.58395,80.20515 C68.4572227,80.1224682 68.3606318,79.9934227 68.1921773,79.9516955 C67.6551318,79.6256045 66.6876773,79.5529682 65.9783136,79.7670136 C65.8631773,79.7639227 65.7665864,79.7616045 65.67695,79.7878773 C65.65995,79.7925136 65.6499045,79.8450591 65.6282682,79.8411955 C65.40495,79.8010136 65.34545,79.9431955 65.2055864,80.0057864 C65.1383591,80.1008318 64.9938591,80.1062409 64.9088591,80.1974227 C64.8733136,80.1788773 64.8733136,80.2468773 64.8547682,80.2553773 C64.6445864,80.36665 64.4289955,80.4709682 64.1678136,80.5358773 C63.7768136,80.4106955 63.5913591,80.0359227 63.5334045,79.5684227 L63.5310864,79.0738773 C63.5334045,78.9973773 63.5782227,78.9224227 63.5782227,78.8428318 C63.5782227,78.7640136 63.5171773,78.6805591 63.5310864,78.6032864 C63.6083591,78.2370136 63.6732682,77.8483318 63.7080409,77.4534682 L63.7157682,76.9349682 C63.8092682,76.18465 64.0372227,75.56415 64.1817227,74.8849227 C64.1940864,74.6013318 64.3447682,74.4120136 64.4761318,74.2389227 C64.4838591,74.2311955 64.49545,74.2026045 64.4985409,74.1948773 M28.6308591,78.0098318 C28.7174045,78.0013318 28.8132227,77.9796955 28.8835409,77.9982409 C29.0829045,78.0476955 29.3100864,78.0453773 29.4847227,78.1010136 C29.6423591,78.2176955 29.8455864,78.2733318 30.0171318,78.3560136 C30.0967227,78.4363773 30.1770864,78.5538318 30.1909955,78.6805591 C29.9676773,78.8258318 29.8015409,79.0027864 29.5256773,79.0800591 L29.0566318,78.9548773 C29.0566318,78.9548773 28.9507682,78.9587409 28.9152227,78.9502409 C28.8897227,78.9448318 28.88045,78.9170136 28.8680864,78.8938318 C28.22595,78.9170136 27.8419045,79.22765 27.5652682,79.6256045 C27.3952682,79.8682409 27.2453591,80.2345136 27.2554045,80.6146955 C27.2685409,81.1509682 27.4408591,81.5203318 27.7437682,81.76915 C27.8735864,81.8742409 28.0690864,81.91365 28.1934955,81.9971045 C28.2908591,82.0681955 28.4075409,81.9878318 28.4624045,81.9971045 L29.06745,82.0705136 C29.3209045,82.0179682 29.5975409,81.9739227 29.8293591,81.8804227 C30.3579045,81.66715 30.7087227,81.2977864 31.1120864,80.9670591 C31.1916773,80.90215 31.2836318,80.8565591 31.3377227,80.7777409 C31.4157682,80.7931955 31.4026318,80.6919682 31.4343136,80.66415 C31.6661318,80.4439227 31.9180409,80.2190591 32.0285409,79.88215 C32.1112227,79.6317864 32.2572682,79.4386045 32.38245,79.2230136 C32.41645,79.1650591 32.5640409,79.1673773 32.5957227,79.2052409 C32.7324955,79.3651955 32.8337227,79.6155591 32.7842682,79.8983773 C32.8491773,80.2252409 32.9341773,80.5096045 33.0972227,80.7112864 C33.26645,80.8241045 33.3537682,81.0118773 33.5005864,81.1393773 C33.8823136,81.4708773 34.4301773,81.65865 35.0839045,81.71815 C35.3195864,81.7397864 35.46795,81.6424227 35.7013136,81.6547864 C36.1966318,81.4994682 36.6981318,81.3472409 37.0605409,81.0760136 C37.2127682,81.0736955 37.32095,81.0226955 37.4098136,80.9693773 C37.4376318,80.9539227 37.5519955,80.9624227 37.5720864,80.9771045 C37.6362227,81.0265591 37.5914045,81.1347409 37.5543136,81.2135591 C37.4839955,81.3766045 37.3132227,81.4901955 37.1609955,81.6006955 C37.0195864,81.8085591 36.7622682,81.8981955 36.6023136,82.08365 C36.36045,82.3687864 36.07995,82.6253318 35.6534045,82.7366045 C35.5282227,82.7427864 35.4293136,82.7505136 35.3605409,82.8092409 C35.3180409,82.8478773 35.2670409,82.8509682 35.2345864,82.8416955 C34.9162227,82.7505136 34.5800864,82.8416955 34.2918591,82.88265 C34.2022227,82.84015 34.1280409,82.7922409 34.0167682,82.8069227 C33.9819955,82.8123318 33.8660864,82.7968773 33.8344045,82.78065 C33.8174045,82.7706045 33.8112227,82.72965 33.7733591,82.7250136 C33.5430864,82.7064682 33.3869955,82.5751045 33.2208591,82.4800591 C32.9890409,82.3494682 32.8337227,82.1616955 32.6397682,81.9924682 C32.5076318,81.7397864 32.3005409,81.5751955 32.1467682,81.3472409 C32.1004045,81.2807864 32.0671773,81.2019682 32.0138591,81.1471045 C31.97445,81.1100136 31.8933136,81.1610136 31.8492682,81.1733773 C31.6978136,81.2189682 31.6846773,81.4059682 31.5958136,81.5102864 C31.4783591,81.6470591 31.3809955,81.8085591 31.1615409,81.8533773 C31.1120864,82.1663318 30.8818136,82.3278318 30.65695,82.4692409 C30.4722682,82.6570136 30.2265409,82.7991955 29.9707682,82.89965 C29.8363136,83.03565 29.6160864,83.1059682 29.4213591,83.1600591 C29.3039045,83.1523318 29.2189045,83.2249682 29.1400864,83.2636045 C28.9948136,83.2473773 28.8758136,83.2829227 28.7884955,83.3192409 C28.5790864,83.2504682 28.3611773,83.3115136 28.2112682,83.3424227 C28.0412682,83.2666955 27.8674045,83.2504682 27.7267682,83.2187864 C27.5467227,83.1214227 27.3697682,83.0480136 27.2183136,82.9715136 C27.0815409,82.7706045 26.9138591,82.6438773 26.75545,82.4615136 C26.7539045,82.3448318 26.7330409,82.2335591 26.6434045,82.1833318 C26.5900864,82.1524227 26.5784955,82.1014227 26.5738591,82.05815 C26.5452682,81.7884682 26.4440409,81.5775136 26.4092682,81.3333318 L26.4123591,80.8519227 C26.5452682,80.0938773 26.80645,79.4161955 27.1966773,78.8922864 L27.5003591,78.5978773 C27.5258591,78.6117864 27.5490409,78.5878318 27.5351318,78.5584682 C27.6193591,78.5028318 27.6680409,78.4178318 27.7259955,78.3366955 C27.7623136,78.3413318 27.8024955,78.3366955 27.8272227,78.31815 C28.0443591,78.1558773 28.3016773,78.0453773 28.6308591,78.0098318 M15.8035864,77.1698773 C15.9218136,77.1513318 16.0423591,77.1119227 16.1636773,77.1289227 C16.4163591,77.1636955 16.68295,77.2038773 16.8877227,77.2927409 L17.0894045,77.4951955 C17.1210864,77.5222409 17.1550864,77.6304227 17.1365409,77.66365 C17.0136773,77.8885136 16.8220409,78.0507864 16.6304045,78.26715 C16.5446318,78.2918773 16.3630409,78.2779682 16.2540864,78.3444227 C16.1412682,78.2988318 15.99445,78.2663773 15.8190409,78.2996045 C15.6227682,78.2663773 15.45045,78.3529227 15.3754955,78.44565 C15.0957682,78.5445591 14.9814045,78.7694227 14.8237682,78.9432864 C14.5092682,79.2910136 14.3245864,79.8187864 14.42195,80.47715 C14.4057227,80.8356955 14.5950409,81.0257864 14.7302682,81.2436955 C14.8291773,81.4059682 14.9620864,81.5612864 15.1143136,81.6686955 C15.8089955,82.1647864 17.0074955,82.28765 18.1410864,82.1632409 C18.2353591,82.1524227 18.33195,82.1926045 18.4099955,82.1964682 C18.5506318,82.1137864 18.7476773,82.13465 18.9238591,82.1114682 C19.2978591,82.0612409 19.6548591,82.0025136 20.00645,81.9190591 C20.1579045,81.9321955 20.3302227,81.9190591 20.4051773,81.8394682 C20.44845,81.7938773 20.5071773,81.8255591 20.5852227,81.7923318 C20.7266318,81.7305136 20.9043591,81.6656045 21.1361773,81.6377864 C21.3672227,81.6091955 21.5372227,81.5180136 21.6654955,81.4306955 C22.0101318,81.4214227 22.2836773,81.3495591 22.49695,81.2491045 C22.6020409,81.1981045 22.7287682,81.1811045 22.8732682,81.1896045 C22.9737227,81.1331955 23.0934955,81.0961045 23.2318136,81.09765 C23.2781773,81.0991955 23.2781773,81.2089227 23.2480409,81.2552864 C23.1784955,81.3626955 23.0865409,81.45465 22.9714045,81.55665 C22.8601318,81.5921955 22.7534955,81.6686955 22.6344955,81.7784227 C22.5069955,81.8147409 22.4104045,81.9383773 22.3393136,82.0566045 C22.2094955,82.1114682 22.0789045,82.1493318 22.0155409,82.2528773 C21.9390409,82.3796045 21.7636318,82.4275136 21.5866773,82.4630591 C21.5070864,82.5372409 21.3757227,82.5967409 21.2289045,82.5650591 C21.11145,82.6168318 21.0202682,82.6801955 20.9252227,82.7281045 C20.89045,82.7474227 20.7644955,82.7350591 20.7498136,82.7489682 C20.6424045,82.8463318 20.4832227,82.9089227 20.3248136,82.84015 C20.2730409,82.89965 20.2328591,82.9715136 20.1834045,82.9738318 C19.9794045,82.9939227 19.8689045,83.0936045 19.67495,83.1013318 C19.3890409,83.1144682 19.1425409,83.1840136 18.8999045,83.2581955 C18.8071773,83.1894227 18.6835409,83.2334682 18.6356318,83.2574227 C18.4640864,83.2798318 18.3682682,83.3679227 18.2508136,83.39265 C18.1951773,83.4034682 18.1016773,83.4297409 18.0800409,83.3439682 C17.9169955,83.3439682 17.7230409,83.3254227 17.5777682,83.3632864 C17.4796318,83.3061045 17.3243136,83.3370136 17.2176773,83.3795136 C17.1133591,83.3370136 17.0214045,83.39265 16.8993136,83.3887864 C16.7061318,83.3849227 16.5369045,83.3648318 16.3877682,83.3192409 C16.18145,83.3617409 15.9465409,83.3377864 15.8113136,83.2775136 C15.7556773,83.2520136 15.67995,83.3292864 15.6073136,83.3138318 C15.3407227,83.2520136 15.1390409,83.1214227 14.9883591,82.9730591 C14.8098591,82.9583773 14.7163591,82.8586955 14.6205409,82.7991955 C14.4683136,82.7505136 14.4010864,82.5890136 14.3021773,82.5063318 C14.1391318,82.4476045 14.0796318,82.2946045 14.0193591,82.1161045 C14.0193591,82.1114682 13.9784045,82.0998773 13.9552227,82.08365 C13.8454955,82.0086955 13.7798136,81.8866045 13.7581773,81.7583318 C13.7489045,81.7057864 13.6708591,81.6138318 13.6731773,81.5806045 C13.6855409,81.3766045 13.6244955,81.2189682 13.5410409,81.0744682 C13.5928136,80.9407864 13.5711773,80.8457409 13.5309955,80.7174682 C13.69945,79.5823318 14.1545864,78.7640136 14.7696773,78.0098318 C14.8539045,77.7378318 15.1313136,77.5740136 15.3708591,77.3816045 C15.4550864,77.2463773 15.6227682,77.19615 15.8035864,77.1698773 M86.2593136,78.1829227 C86.3211318,78.1829227 86.4208136,78.1203318 86.4439955,78.1303773 C86.6286773,78.2030136 86.8380864,78.2370136 87.0907682,78.2231045 C87.3364955,78.3668318 87.5860864,78.4912409 87.8248591,78.6148773 C88.1439955,78.9680136 88.4121318,79.3481955 88.4685409,79.9625136 C88.4832227,80.1464227 88.3781318,80.3202864 88.2962227,80.4508773 C88.3418136,80.6154682 88.2181773,80.7027864 88.1494045,80.7522409 C88.0775409,81.0559227 87.8588591,81.1772409 87.70895,81.3735136 C87.6942682,81.3943773 87.6842227,81.4160136 87.6911773,81.4098318 C87.4639955,81.6370136 87.2514955,81.8410136 87.0930864,82.08365 C86.8713136,82.1748318 86.7646773,82.3656955 86.6031773,82.5271955 C86.4161773,82.5720136 86.2461773,82.6508318 86.1302682,82.7860591 C85.9803591,82.8154227 85.8629045,82.9073773 85.7099045,82.9529682 C85.67745,82.95915 85.6125409,82.9916045 85.5569045,83.0055136 C85.3019045,83.0565136 85.09095,83.0178773 84.8374955,83.0858773 C84.6566773,83.0433773 84.3962682,83.0178773 84.1922682,83.0835591 L83.93495,82.9715136 C83.3159955,82.8308773 82.7982682,82.5689227 82.39645,82.2057409 C82.0108591,81.9383773 81.7311318,81.55665 81.5085864,81.1270136 C81.4776773,80.9755591 81.4004045,80.8635136 81.3486318,80.7468318 C81.3710409,80.6077409 81.3030409,80.5211955 81.2922227,80.4215136 C81.2358136,80.0235591 81.36795,79.7708773 81.5194045,79.58465 C81.56345,79.5321045 81.5758136,79.4378318 81.5951318,79.3945591 C81.6778136,79.1967409 81.8045409,79.0553318 81.9892227,78.9517864 C82.1290864,79.0352409 82.1947682,79.2013773 82.3168591,79.3651955 C82.3508591,79.5576045 82.3531773,79.8149227 82.4095864,80.0119682 L82.8539045,80.7174682 C83.0540409,80.9075591 83.2588136,81.0899227 83.4798136,81.2583773 C83.7525864,81.4639227 84.1397227,81.55665 84.4047682,81.7305136 C84.7293136,81.7637409 84.9704045,81.8641955 85.2988136,81.8533773 C85.59245,81.8448773 85.9077227,81.8448773 86.1681318,81.7977409 C86.37445,81.6872409 86.6534045,81.6277409 86.7979045,81.4322409 C87.0158136,81.2560591 87.2514955,81.09765 87.4168591,80.8743318 C87.4949045,80.7692409 87.5505409,80.6409682 87.6231773,80.5250591 C87.6618136,80.4647864 87.6533136,80.3821045 87.6185409,80.3141045 C87.5891773,80.2623318 87.5582682,80.20515 87.5829955,80.1379227 C87.6046318,80.07765 87.5760409,79.9972864 87.5428136,79.9455136 C87.3233591,79.6171045 87.0042227,79.3906955 86.6928136,79.2029227 C86.4633136,79.1781955 86.3543591,79.0684682 86.1526773,79.0568773 C85.9185409,79.0437409 85.6674045,79.06615 85.4147227,79.0754227 C85.2964955,79.1434227 85.1496773,79.1843773 84.9642227,79.1897864 C84.8011773,79.2941045 84.5917682,79.3744682 84.4202227,79.4169682 C84.3298136,79.4386045 84.2332227,79.5135591 84.1760409,79.4648773 C84.1064955,79.3999682 84.0392682,79.3226955 84.0276773,79.1928773 C84.1652227,78.9595136 84.44495,78.8799227 84.6504955,78.7106955 C84.7872682,78.6009682 84.9920409,78.5430136 85.07395,78.4240136 C85.1798136,78.3876955 85.2624955,78.3529227 85.34595,78.3598773 C85.5028136,78.2339227 85.7145409,78.1751955 85.9865409,78.1829227 C86.0815864,78.1535591 86.1835864,78.1836955 86.2593136,78.1829227 M76.0175864,78.4719227 C76.0971773,78.4487409 76.1396773,78.5151955 76.1860409,78.56465 C76.2354955,78.6148773 76.2354955,78.7037409 76.3220409,78.7400591 C76.34445,78.9401955 76.3143136,79.1998318 76.3684045,79.4076955 C76.2772227,79.63565 76.31895,79.9864682 76.3915864,80.1765591 C76.3838591,80.6069682 76.4449045,81.0049227 76.4201773,81.3657864 C76.4093591,81.6045591 76.5577227,81.8240136 76.6218591,81.9739227 C76.6257227,82.1748318 76.6450409,82.3463773 76.5924955,82.4676955 C76.4116773,82.4955136 76.3374955,82.6415591 76.2432227,82.76365 C76.2061318,82.8123318 76.17445,82.8602409 76.0940864,82.8710591 C76.0036773,82.88265 75.9094045,82.9073773 75.8267227,82.9073773 C75.7432682,82.7961045 75.6003136,82.7566955 75.5493136,82.6315136 C75.48595,82.4715591 75.48595,82.2830136 75.5099045,82.0998773 C75.4079045,81.9546045 75.4079045,81.70115 75.4473136,81.6192409 C75.4187227,80.9732409 75.4426773,80.4640136 75.4318591,79.9130591 C75.42645,79.7314682 75.4171773,79.5282409 75.4504045,79.3265591 C75.5717227,79.1496045 75.6544045,78.9262864 75.7247227,78.7045136 C75.8213136,78.5978773 75.8954955,78.5028318 76.0175864,78.4719227 M75.9974955,76.04865 C76.0616318,76.0216045 76.17445,76.0069227 76.2177227,76.0664227 C76.3939045,76.30365 76.4850864,76.6343773 76.6867682,76.8414682 C76.7910864,76.9519682 76.8946318,77.0578318 76.9626318,77.1822409 C76.9919955,77.2293773 76.9788591,77.4101955 76.9579955,77.42565 C76.7833591,77.5585591 76.6628136,77.7254682 76.4642227,77.80815 C76.1342682,77.8205136 75.8800409,77.71465 75.7092682,77.5585591 C75.6296773,77.3731045 75.5477682,77.1868773 75.4534955,77.0145591 C75.4171773,76.9504227 75.5423591,76.8546045 75.5670864,76.7611045 C75.6381773,76.4937409 75.7788136,76.2395136 75.9758591,76.0710591 C75.9812682,76.0679682 75.9905409,76.0525136 75.9974955,76.04865" id="Fill-9" fill="#FFFFFF"></path>
                </g>
            </g>
        </g>
    </g>
</svg>